<svg xmlns="http://www.w3.org/2000/svg" width="225" height="125" viewBox="0 0 225 125">
  <g id="Hardtop" transform="translate(-1313 -64)">
    <rect id="Rectangle_12" data-name="Rectangle 12" width="225" height="125" transform="translate(1313 64)" fill="none"/>
    <g id="Group_36" data-name="Group 36" transform="translate(1321 83.896)">
      <path id="Path_33" data-name="Path 33" d="M1480.747,292.837c7.759,3.337,18.6,14.666,18.9,26.834h-8.328s-5.373-16.687-15.334-18.11c-27.76-3.965-28.421,21.547-28.421,21.547l-11.236-.793-4.891-4.759,7.667-7.931h-16.789l.075-16.817,31.122-.9S1478.786,291.993,1480.747,292.837Z" transform="translate(-1410.129 -256.017)" fill="#dedfe0" fill-rule="evenodd"/>
      <path id="Path_34" data-name="Path 34" d="M1618.615,305.073l-4.089-4.088h-4.088l-4.087-4.088h8.175V292.81l-8.175-4.088-20.44-4.088h-20.44l-24.527-24.528-8.177-4.088h-98.11l-4.088,4.089-4.088,16.351v8.176h16.352l4.088-16.352h24.527v16.352h4.088V268.281h4.088v16.352h4.089V268.281h24.527l4.088,16.352h4.088l-4.088-16.352h28.616l16.351,16.352-4.088,4.089H1422.393V276.457l-12.264,8.176v24.528l8.176,4.087h12.264l-4.088,4.088,8.176,8.175h15.958a19.811,19.811,0,1,1,38.952,0h75.226a19.81,19.81,0,1,1,38.953,0h6.692l8.177-4.086-4.089-4.088,4.089-4.088Zm-4.089,6.483-5.78,5.781,2.967,2.967-2.239,1.12h-1.311a23.9,23.9,0,0,0-47.786,0h-66.392a23.9,23.9,0,0,0-47.786,0h-9.849l-4.088-4.088,8.176-8.175H1419.27l-5.053-2.527V286.821l4.088-2.726v16.89l4.088,4.087V292.808H1554.9l6.483-6.482,2.394,2.395h21.729l19.506,3.9.373.188h-8.9l12.264,12.263h4.087l1.693,1.693Z" transform="translate(-1410.129 -256.017)" fill="#4b2566" fill-rule="evenodd"/>
      <path id="Path_35" data-name="Path 35" d="M1539.25,264.193l-.728-.727-6.719-3.36H1436.35l-2.09,2.089-3.691,14.765v3.585h9.072l4.088-16.353Z" transform="translate(-1410.129 -256.017)" fill="#dedfe0" fill-rule="evenodd"/>
      <path id="Path_36" data-name="Path 36" d="M1549.089,294.952a105.488,105.488,0,0,1,34.1,1.322c-23.926,2.379-26.57,22.6-26.57,22.6Z" transform="translate(-1410.129 -256.017)" fill="#dedfe0" fill-rule="evenodd"/>
      <g id="Group_35" data-name="Group 35" transform="translate(31.533 52.874)">
        <ellipse id="Ellipse_5" data-name="Ellipse 5" cx="85.659" cy="3.963" rx="85.659" ry="3.963" transform="translate(0 24.489)" fill="#dedfe0"/>
        <g id="Group_30" data-name="Group 30" transform="translate(13.675)">
          <path id="Path_37" data-name="Path 37" d="M1470.215,338.648a14.879,14.879,0,1,1,14.879-14.879A14.9,14.9,0,0,1,1470.215,338.648Zm0-24.987a10.108,10.108,0,1,0,10.108,10.108A10.119,10.119,0,0,0,1470.215,313.661Z" transform="translate(-1455.337 -308.891)" fill="#4b2566"/>
        </g>
        <g id="Group_31" data-name="Group 31" transform="translate(22.6 7.779)">
          <path id="Path_38" data-name="Path 38" d="M1470.268,330.17a6,6,0,0,1-.885-11.937V316.67h.808a7.52,7.52,0,0,1,7.564,7.5,2.112,2.112,0,0,1-.026.31l-.1.684-.708.156h-.788A6.014,6.014,0,0,1,1470.268,330.17Zm.705-11.872v1.446l-.781.014a4.411,4.411,0,1,0,4.456,4.711l.052-.74h1.434A5.924,5.924,0,0,0,1470.973,318.3Z" transform="translate(-1464.262 -316.67)" fill="#fbc43a"/>
        </g>
        <g id="Group_34" data-name="Group 34" transform="translate(127.961)">
          <g id="Group_32" data-name="Group 32">
            <path id="Path_39" data-name="Path 39" d="M1584.5,338.648a14.879,14.879,0,1,1,14.878-14.879A14.9,14.9,0,0,1,1584.5,338.648Zm0-24.987a10.108,10.108,0,1,0,10.108,10.108A10.119,10.119,0,0,0,1584.5,313.661Z" transform="translate(-1569.623 -308.891)" fill="#4b2566"/>
          </g>
          <g id="Group_33" data-name="Group 33" transform="translate(8.925 7.779)">
            <path id="Path_40" data-name="Path 40" d="M1584.553,330.17a6,6,0,0,1-.885-11.937V316.67h.808a7.52,7.52,0,0,1,7.565,7.5,2.112,2.112,0,0,1-.027.31l-.1.684-.708.156h-.787A6.014,6.014,0,0,1,1584.553,330.17Zm.705-11.872v1.446l-.781.014a4.411,4.411,0,1,0,4.456,4.711l.052-.74h1.434A5.923,5.923,0,0,0,1585.258,318.3Z" transform="translate(-1578.548 -316.67)" fill="#fbc43a"/>
          </g>
        </g>
      </g>
      <path id="Path_41" data-name="Path 41" d="M1614.526,300.985V296.9h-8.176l4.087,4.088Z" transform="translate(-1410.129 -256.017)" fill="#fbc43a" fill-rule="evenodd"/>
      <rect id="Rectangle_6" data-name="Rectangle 6" width="8.196" height="3.437" transform="translate(89.917 39.331)" fill="#4b2566"/>
      <rect id="Rectangle_7" data-name="Rectangle 7" width="8.196" height="3.437" transform="translate(128.253 39.331)" fill="#4b2566"/>
    </g>
  </g>
</svg>
