<svg xmlns="http://www.w3.org/2000/svg" width="225" height="125" viewBox="0 0 225 125">
  <g id="Roadster" transform="translate(-527 -567)">
    <rect id="Rectangle_21" data-name="Rectangle 21" width="225" height="125" transform="translate(527 567)" fill="none"/>
    <g id="Group_85" data-name="Group 85" transform="translate(548 600.081)">
      <path id="Path_91" data-name="Path 91" d="M591.766,839.312c7.759,3.337,21.048,13.961,21.349,26.13h-8.328s-5.391-16.568-15.334-18.11c-21.878-3.393-26.108,24.1-26.108,24.1l-8.857-3.965-3.04-9.254,9.782-8.857-5.288-3.437,1.454-5.331,17.317-4.715,11.369-8.328,14.276-.4-7.534,4.627S589.8,838.469,591.766,839.312Z" transform="translate(-549.244 -821.19)" fill="#dedfe0" fill-rule="evenodd"/>
      <path id="Path_92" data-name="Path 92" d="M733.2,853.893h-4.088l-4.087-4.088h4.087l-4.087-4.088-16.352-4.087h4.088l-4.088-4.089h-20.44l-4.088,4.089H631l-4.088-12.265h-4.088l4.088,12.265h-4.088l-28.615-4.089v-4.088l16.351-8.175h36.792l20.44,12.263h12.265L647.354,821.19H606.475l-20.439,4.087-12.264,8.176H557.42l4.088-4.088H549.244v4.088l4.088,4.087h8.176l-8.176,4.088V849.8h4.088l-4.088,4.088h-4.088v8.176l4.088,8.176,8.176,4.088h6.678a18.121,18.121,0,1,1,34.3,0h77.263a18.12,18.12,0,1,1,34.3,0h15.07l4.088-4.088-4.088-4.088,4.088-4.088Zm-4.088,6.482-5.781,5.782,4.089,4.088h-8.387q.067-.882.069-1.77a22.206,22.206,0,0,0-44.412,0q0,.887.07,1.77H607.472q.07-.882.07-1.769a22.206,22.206,0,0,0-44.412,0q0,.887.07,1.769h-.727l-6.094-3.047-3.047-6.1V857.98h1.693l12.264-12.264H557.42v-1.562l13.228-6.613h4.361l12.622-8.414,10.152-2.031-7.661,3.831v10.159l32.413,4.631h63.3l4.088-4.087h14.628l-.38,3.088,13.31,3.328,9.936,9.935h1.692Z" transform="translate(-549.244 -821.19)" fill="#4b2566" fill-rule="evenodd"/>
      <g id="Group_84" data-name="Group 84" transform="translate(11.325 33.574)">
        <ellipse id="Ellipse_12" data-name="Ellipse 12" cx="82.462" cy="3.815" rx="82.462" ry="3.815" transform="translate(0 24.637)" fill="#dedfe0"/>
        <g id="Group_79" data-name="Group 79" transform="translate(9.092)">
          <path id="Path_93" data-name="Path 93" d="M584.54,884.521a14.879,14.879,0,1,1,14.878-14.879A14.9,14.9,0,0,1,584.54,884.521Zm0-24.987a10.108,10.108,0,1,0,10.108,10.108A10.119,10.119,0,0,0,584.54,859.534Z" transform="translate(-569.661 -854.764)" fill="#4b2566"/>
        </g>
        <g id="Group_80" data-name="Group 80" transform="translate(18.017 7.78)">
          <path id="Path_94" data-name="Path 94" d="M584.592,876.044a6,6,0,0,1-.885-11.937v-1.563h.808a7.52,7.52,0,0,1,7.565,7.5,2.1,2.1,0,0,1-.027.31l-.1.685-.708.155h-.788A6.013,6.013,0,0,1,584.592,876.044Zm.705-11.873v1.446l-.781.014a4.412,4.412,0,1,0,4.456,4.711l.052-.74h1.434A5.924,5.924,0,0,0,585.3,864.171Z" transform="translate(-578.586 -862.544)" fill="#fbc43a"/>
        </g>
        <g id="Group_83" data-name="Group 83" transform="translate(121.428)">
          <g id="Group_81" data-name="Group 81">
            <path id="Path_95" data-name="Path 95" d="M696.875,884.521a14.879,14.879,0,1,1,14.878-14.879A14.9,14.9,0,0,1,696.875,884.521Zm0-24.987a10.108,10.108,0,1,0,10.108,10.108A10.119,10.119,0,0,0,696.875,859.534Z" transform="translate(-681.997 -854.764)" fill="#4b2566"/>
          </g>
          <g id="Group_82" data-name="Group 82" transform="translate(8.925 7.78)">
            <path id="Path_96" data-name="Path 96" d="M696.927,876.044a6,6,0,0,1-.885-11.937v-1.563h.808a7.519,7.519,0,0,1,7.565,7.5,2.1,2.1,0,0,1-.027.31l-.1.685-.708.155H702.8A6.014,6.014,0,0,1,696.927,876.044Zm.705-11.873v1.446l-.781.014a4.412,4.412,0,1,0,4.456,4.711l.052-.74h1.434A5.923,5.923,0,0,0,697.632,864.171Z" transform="translate(-690.922 -862.544)" fill="#fbc43a"/>
          </g>
        </g>
      </g>
      <path id="Path_97" data-name="Path 97" d="M666.586,848.3s7.755-.176,18.506.264c-15.862,4.935-13.219,17.89-13.219,17.89Z" transform="translate(-549.244 -821.19)" fill="#dedfe0" fill-rule="evenodd"/>
      <path id="Path_98" data-name="Path 98" d="M729.112,849.8l4.088,4.089h-4.088l-4.087-4.089Z" transform="translate(-549.244 -821.19)" fill="#fbc43a" fill-rule="evenodd"/>
      <rect id="Rectangle_33" data-name="Rectangle 33" width="8.196" height="3.437" transform="translate(107.163 27.419)" fill="#4b2566"/>
    </g>
  </g>
</svg>
