<svg xmlns="http://www.w3.org/2000/svg" width="225" height="125" viewBox="0 0 225 125">
  <g id="Targa" transform="translate(-1062 -567)">
    <g id="Group_118" data-name="Group 118" transform="translate(1062 567)">
      <rect id="Rectangle_23" data-name="Rectangle 23" width="225" height="125" fill="none"/>
    </g>
    <g id="Group_99" data-name="Group 99" transform="translate(1083 604.279)">
      <path id="Path_107" data-name="Path 107" d="M1212.51,840.369c7.76,3.338,18.6,14.666,18.9,26.835h-8.328s-5.373-16.687-15.334-18.11c-27.76-3.966-26.063,22.737-26.063,22.737l-7.843-.176-5.552-7.579-2.909-4.935,10.311-3.085.088-10.751.265-3.085,32.166-10.575-4.142,6.7S1210.55,839.526,1212.51,840.369Z" transform="translate(-1161.209 -825.34)" fill="#dedfe0" fill-rule="evenodd"/>
      <path id="Path_108" data-name="Path 108" d="M1345.108,858.046l-16.351-4.088v-8.176l-20.441-4.088h-77.67l-24.528-4.088,4.087-4.089,12.264-4.088,4.089,8.175v-8.175h24.527l8.176,8.176h4.088l-8.176-8.176,12.263,4.088,8.177,4.088h12.264l-20.441-8.176-12.263-4.088h-32.7l-16.351,4.088L1181.59,837.6l-12.263,8.176-4.089,8.175,8.176-4.088v4.088l-12.2,4.06,4.089,8.176h4.087v4.087l4.088,4.088h11.865a17.326,17.326,0,1,1,33.144,0h66.7a17.325,17.325,0,1,1,33.142,0h18.663l4.029-4.06-4.088-4.084h8.176Zm-4.088,4.088h-13.962l8.15,8.144h-12.06c.014-.324.022-.649.022-.975a21.413,21.413,0,0,0-42.825,0c0,.326.008.651.022.975H1223.3q.021-.486.021-.975a21.412,21.412,0,0,0-42.825,0c0,.326.007.651.023.975h-5.355l-1.693-1.693V862.1h-5.65l-.848-1.7,10.527-3.5V845.241l5.9-3.932,19.846-6.616-5.637,5.639,32.7,5.449h77.6l16.757,3.352v8.016l16.352,4.088Z" transform="translate(-1161.209 -825.34)" fill="#4b2566" fill-rule="evenodd"/>
      <g id="Group_98" data-name="Group 98" transform="translate(17.659 29.424)">
        <ellipse id="Ellipse_14" data-name="Ellipse 14" cx="73.138" cy="3.178" rx="73.138" ry="3.178" transform="translate(0 24.637)" fill="#dedfe0"/>
        <g id="Group_93" data-name="Group 93" transform="translate(9.092)">
          <path id="Path_109" data-name="Path 109" d="M1202.838,884.521a14.879,14.879,0,1,1,14.878-14.879A14.9,14.9,0,0,1,1202.838,884.521Zm0-24.987a10.108,10.108,0,1,0,10.108,10.108A10.12,10.12,0,0,0,1202.838,859.534Z" transform="translate(-1187.96 -854.764)" fill="#4b2566"/>
        </g>
        <g id="Group_94" data-name="Group 94" transform="translate(18.016 7.78)">
          <path id="Path_110" data-name="Path 110" d="M1202.891,876.044a6,6,0,0,1-.885-11.937v-1.563h.808a7.519,7.519,0,0,1,7.564,7.5,2.117,2.117,0,0,1-.026.31l-.1.685-.708.155h-.788A6.015,6.015,0,0,1,1202.891,876.044Zm.7-11.873v1.446l-.781.014a4.412,4.412,0,1,0,4.456,4.711l.052-.74h1.434A5.925,5.925,0,0,0,1203.6,864.171Z" transform="translate(-1196.884 -862.544)" fill="#fbc43a"/>
        </g>
        <g id="Group_97" data-name="Group 97" transform="translate(108.045)">
          <g id="Group_95" data-name="Group 95">
            <path id="Path_111" data-name="Path 111" d="M1301.791,884.521a14.879,14.879,0,1,1,14.878-14.879A14.895,14.895,0,0,1,1301.791,884.521Zm0-24.987a10.108,10.108,0,1,0,10.108,10.108A10.119,10.119,0,0,0,1301.791,859.534Z" transform="translate(-1286.913 -854.764)" fill="#4b2566"/>
          </g>
          <g id="Group_96" data-name="Group 96" transform="translate(8.924 7.78)">
            <path id="Path_112" data-name="Path 112" d="M1301.843,876.044a6,6,0,0,1-.885-11.937v-1.563h.808a7.518,7.518,0,0,1,7.564,7.5,2.1,2.1,0,0,1-.026.31l-.1.685-.708.155h-.788A6.013,6.013,0,0,1,1301.843,876.044Zm.7-11.873v1.446l-.781.014a4.412,4.412,0,1,0,4.456,4.711l.052-.74h1.434A5.924,5.924,0,0,0,1302.548,864.171Z" transform="translate(-1295.837 -862.544)" fill="#fbc43a"/>
          </g>
        </g>
      </g>
      <path id="Path_113" data-name="Path 113" d="M1273.692,848.389s8.637-.264,19.388.176c-15.863,4.935-14.717,21.063-14.717,21.063Z" transform="translate(-1161.209 -825.34)" fill="#dedfe0" fill-rule="evenodd"/>
      <path id="Path_114" data-name="Path 114" d="M1345.108,858.046v-7.233l-16.351-5.031v8.176Z" transform="translate(-1161.209 -825.34)" fill="#fbc43a" fill-rule="evenodd"/>
      <rect id="Rectangle_36" data-name="Rectangle 36" width="8.196" height="3.437" transform="translate(104.684 24.327)" fill="#4b2566"/>
      <rect id="Rectangle_37" data-name="Rectangle 37" width="8.196" height="3.437" transform="translate(64.498 24.327)" fill="#4b2566"/>
    </g>
  </g>
</svg>
