<?xml version="1.0" encoding="UTF-8"?>
<svg id="Layer_1" data-name="Layer 1" xmlns="http://www.w3.org/2000/svg" xmlns:xlink="http://www.w3.org/1999/xlink" viewBox="0 0 1879.59 499.91">
  <defs>
    <style>
      .cls-1 {
        fill: #fff;
      }

      .cls-2 {
        fill: #1c1c1c;
      }

      .cls-3 {
        fill: #f15c27;
      }

      .cls-4 {
        clip-path: url(#clippath);
      }

      .cls-5 {
        fill: none;
      }
    </style>
    <clipPath id="clippath">
      <rect class="cls-5" x="1379.68" width="499.91" height="499.91"/>
    </clipPath>
  </defs>
  <g class="cls-4">
    <g>
      <path class="cls-1" d="m925.98,499.13c-306.57,0-613.14-.01-919.71.13-5.12,0-6.28-1.14-6.27-6.22C.16,330.98.16,168.93,0,6.87,0,1.79,1.15.65,6.27.65c613.14.13,1226.27.13,1839.41,0,5.12,0,6.28,1.14,6.27,6.22-.16,162.05-.16,324.11,0,486.16,0,5.08-1.15,6.22-6.27,6.22-306.57-.14-613.14-.13-919.71-.13Zm-206.69-228.83c-27.04,1.12-60.43-1.55-93.8,1.21-17.73,1.47-33.81,14.45-37.87,33.66-2.88,13.63-2.17,27.28,2.12,40.94,4.03,12.86,12.64,20.68,24.35,25.55,13.91,5.78,28.8,3.99,43.37,3.99,240.32.06,480.64.09,720.96.02,6.76,0,13.55-.07,20.34-.41,13.34-.66,26.72-1.16,40.13.37,19.25,2.19,35.94-3.86,46.95-21.53,9.41-15.1,9.85-31.36,5.75-48.3-4.01-16.59-13.2-28.05-30.01-32.81-7.6-2.15-15.54-2.53-23.31-2.54-101.75-.18-203.49-.12-305.24-.12-48.31,0-96.61-.01-144.92,0-44.65,0-89.31.04-133.96.05-13.72,0-27.44-.06-41.16-.07-29.13-.01-58.26,0-93.7,0ZM906.71,21.47c.65.99.85,1.65,1.13,1.68,16.65,2.02,33.27,4.8,49.99,5.76,22.62,1.3,45.22,2.58,67.66,5.74,13.41,1.88,26.71,4.53,40.13,6.22,10.8,1.36,21.41,3.81,32.32,4.67,10.03.8,20.14,1.51,30.05,3,14.84,2.24,29.41,6.22,44.18,9.03,25.84,4.92,51.92,8.41,77.54,14.74,35.5,8.78,71.09,17.34,105.67,29.15,30.19,10.31,59.73,22.47,88.55,36.2,6.55,3.12,13.46,6.08,18.62,11.34,12.91,13.15,18.15,28.8,15.27,47.19-2.3,14.65-11.99,22.18-26.31,18.28-13.25-3.6-26.13-2.46-39.1.35-4.34.94-7.87,3.99-9.47,7.84-3.17,7.58-4.49,15.44-1.91,23.78,1.46,4.72,3.67,6.79,8.58,6.24,16.66-1.89,33.25-1.45,50.01-.27,22.85,1.61,38.99,13.55,52.13,30.37,15.63,20,13.9,60.62-3.61,79.87-14.51,15.94-31.87,25.45-54.06,25.56-14.46.08-28.91-.96-43.39,1.04-9.38,1.3-12.36,5.25-8.44,14.25.79,1.82,1.84,3.55,2.88,5.25,8.26,13.54,21.28,18.66,36.28,18.46,29.03-.39,58.07.45,87.1-.9,5.08-.24,5.82-2.18,4.96-6.14-4.21-19.56-5.22-39.18-2.59-59.11,3.67-27.8,19.67-52.92,41.91-69.68,24.81-18.7,51.98-22.72,82.19-21.32,48.67,2.24,88.66,45.63,95.87,92.07,1.97,12.67,1.7,25.34-.53,37.94-1.53,8.63-4.66,23.64,6.29,27.5,7.39,2.61,15.93.39,23.51.08,10.15-.41,19.82-2.77,29.62-4.6,3.96-.74,8.33-2.47,9.3-7.44,2.92-14.99,9.25-28.83,15.26-42.68,5.07-11.7,6.75-22.24.33-34.43-7.02-13.34-12.72-27.49-16.34-42.34-1.49-6.13-4.25-11.97-7.71-17.47-11.16-17.73-28.32-28.12-46.54-36.76-20.02-9.5-40.13-18.59-62.59-22.09-24.16-3.77-47.98-9.68-71.96-14.59-9.94-2.04-18.78-6.19-26.92-12.25-8.77-6.52-16.52-14.24-25.68-20.35-33.43-22.28-68.89-40.59-105.95-56.22-39.59-16.7-80.38-29.83-121.43-42.28-24.26-7.35-49.42-11.06-74.13-16.58-19.9-4.45-39.72-9.29-59.96-11.91-10.07-1.31-19.62-5.3-30.19-4.62-3.87.25-8.43-.48-12.6-1.21-12.22-2.12-24.35-4.97-36.65-6.42-19.55-2.32-39.2-3.69-58.81-5.55-14.34-1.36-28.75-1.71-43.1-2.38-14.89-.7-29.79-1.77-44.73-2.03-11.26-.19-22.7.23-33.84-1.14-16.2-2-32.24-.27-48.78-.83Zm-606.16,243.37c0,30.44-.17,60.88.16,91.31.06,5.46.85,12.51,7.35,14.08,17.33,4.19,23.91-1.39,23.91-18.87,0-32.47.06-64.93-.07-97.4-.02-4.68.48-6.15,5.97-4.65,11.5,3.13,23.06,6.9,35.25,6.01,16.35-1.19,26.99-9.98,30.13-25.61,3.13-15.57,1.8-31.12,2.52-46.69.59-12.91-6.95-20.01-16.65-23.74-10.33-3.98-21-3.1-31.8-1.9-7.75.86-15.18,3.34-23.12,3.34-8.55,0-16.85-.94-25.18-2.72-2.48-.53-6.98-1.42-6.86,2.98.13,5.02-1.65,9.65-1.64,14.58.07,29.76.03,59.52.04,89.28Zm1304.15-135.03c-11.24-.77-19.12-1.3-25.08,6.14-2.7,3.37-3.05,4.89.93,7.1,8.64,4.78,18.15,6.91,27.56,9.23,5.15,1.27,7.97,3.88,8.98,9.05,1.6,8.22,3.58,16.36,5.4,24.54.84,3.79,3.42,5.79,6.9,4.19,4.49-2.07,8.74-5.35,9.21-10.66.53-6,2.18-11.92,1.56-18.03-.4-3.87,1.24-6.88,4.18-9.49,6.58-5.85,13.02-11.86,19.43-17.89,2.6-2.45,4.76-2.71,6.23.87,1.61,3.91,3.44,7.83,4.3,11.92,2.91,13.76,10.98,25.63,14.43,39.21.22.84.85,5.23,5.02,3.47,6.72-2.84,11.23-7.66,10.44-14.7-2.15-19.21-5.09-38.33-7.51-57.51-.82-6.53-2.11-12.64,5.12-17.9,9.26-6.73,17.4-15.08,25.55-23.19,7.92-7.88,7.88-20.01.59-27.11-6-5.84-19.6-5.21-26.56,1.32-9.39,8.81-18.72,17.68-28.08,26.52-1.61,1.52-2.86,2.78-5.78,1.99-13.51-3.66-27.08-7.15-40.76-10.14-9.8-2.14-19.51-5.39-29.81-4.3-3.11.33-11.19,6.81-11.21,9.25-.03,5.4,4.88,5.26,8.13,6.67,14.01,6.06,27.33,13.55,41.59,19.11,6.28,2.45,6.52,5.79,1.58,10.69-3.5,3.47-7.98,6.07-11.11,9.81-6.5,7.77-14.12,11.73-21.22,9.85Zm-767.03,124.22c11.73-.09,22.06.08,32.42-1.26,13.87-1.8,20.39-8.49,20.37-22.2-.01-13.83-4.09-27.38-2.7-41.32.35-3.5-2.03-4.4-5.31-4.36-10.91.14-21.86.52-32.74-.14-5.24-.32-6.78,2.54-8,6-2.85,8.09-.09,14.25,7.74,17.99,1.76.84,3.76,1.2,5.55,2,3.66,1.63,5.21,4.76,3.77,8.27-2.17,5.31-5.38,9.98-12.34,9.39-5.36-.46-10.78-.64-16.05-1.59-9.56-1.73-16.72-6.55-18.73-16.69-1.76-8.91-3.88-17.74-3.22-27.01.65-9.21,4.41-16.23,11.9-21.82,8.26-6.16,17.77-6.91,27.33-7.12,9.04-.2,18.1.6,27.15,1.02,3.3.15,6.63-.4,8.31-3.2,3.93-6.57.49-19.62-6.33-21.85-15.03-4.91-29.88-9.43-46.2-6.28-22.26,4.31-38.05,15.77-45.19,37.51-7.07,21.53-5.42,43.37-1.67,65.24,2.73,15.97,12.77,23.49,28.27,26.34,9.09,1.67,18.06.1,25.66,1.08Zm254.91-74.29c0,15.55-.71,31.15.23,46.64.7,11.57,1.65,18.04,17.52,18.5,7.09.2,15.28-1.3,21.54,3.09,9.33,6.54,19.55,7.43,30.36,7.47,14.28.06,24.29-6.27,30.09-18.94,7.49-16.36,6.82-33.76,5.74-51.1-1.03-16.49-9.03-25.73-26.17-28.26-14.45-2.13-29.51-2.22-43.37,4.75-3.21,1.61-7.46,3.04-5.73-3.02,2.19-7.67-.31-14.96-.23-22.42.13-12.04-8.54-18.23-20.37-14.65-6.64,2.01-9.84,6.19-9.73,13.31.24,14.87.07,29.75.09,44.63ZM124.41,254.02c14.33,0,17.87-3.57,13.23-13.17-8.55-17.68-13.72-36.73-22.97-54.1-2.03-3.82-3.95-7.79-5.17-11.92-3.97-13.45-9.86-26.08-15.76-38.75-1.84-3.96-5.49-5.95-8.77-6.26-6.15-.59-12.51-1.4-18.76.59-2.31.73-3.65,1.69-5.11,3.65-4.46,5.96-6.11,13.07-8.95,19.67-12.9,29.98-25.5,60.08-38.56,89.99-1.65,3.78-.84,6.09,1.96,7.54,10.7,5.56,23.55,3.82,31.27-6.51,16.3-21.8,45.36-18.2,59.91-.54,5.87,7.13,10.43,10.4,17.68,9.81Zm1197.58-42.25s.05,0,.08,0c0-6.99.46-14.01-.1-20.96-1.19-14.75-6.28-25.88-20.57-30.89-6.39-2.24-13.2-2.37-19.8-2.71-16.98-.89-34.04-1.52-50.99.26-8.52.89-13.62,16.31-8.47,23.35,1.48,2.03,3.16,1.33,4.78,1.34,10.91.09,21.84.54,32.72-.05,11.02-.6,20.46,3.04,29.58,8.4,1.75,1.03,4.14,2.1,3.76,4.28-.46,2.65-3.32,1.72-5.11,1.75-14.5.28-29.01.37-43.51.55-9.21.12-17.02,3.15-22.52,10.85-4.32,6.06-3.78,13.03-3.59,19.88.52,18.62,10.78,25.51,25.54,25.83,18.22.4,36.36,2.98,54.75.56,14.73-1.94,24.62-11.19,23.54-24.19-.5-6.05-.09-12.17-.09-18.25Zm-789.33-7.33c.1-7.04.59-13.63-1.42-19.87-2.35-7.28-2.42-15.41-10.34-20.43-13.21-8.38-28.23-7.32-42.58-8.44-6.33-.5-13.54.4-20.33,1.99-16.13,3.78-23.3,7.09-27.75,23.95-3.83,14.56-3.35,29.18-1.12,43.66,2.25,14.69,9.69,25.88,26.01,28.26,6.19.9,12.47,1.18,18.7,1.83,9.74,1,19.35-.91,28.98-1.55,14.2-.94,24.06-10.3,27.13-24.24,1.86-8.46,3.28-16.99,2.72-25.15Zm484.09,49.34c0,.06,0,.12,0,.18,6.6,0,13.25.55,19.78-.11,13.57-1.38,26.09-6.35,29.42-20.49,4.1-17.45,4.41-35.21,1.08-53.11-2.1-11.31-8.3-17.88-18.86-20.6-18.54-4.79-37.38-4.61-56.12-1.34-17.67,3.09-24.81,15.01-26.28,25.96-1.66,12.36-1.53,24.85-.15,37.22,2.07,18.51,10.71,28.77,28,32.05,7.45,1.41,15.4.24,23.13.24Zm-333.77-52.46h-.03c0-3.61.29-7.25-.06-10.82-.64-6.41,2.79-8.34,8.42-8.3,4.09.03,8.21.29,12.28-.03,6.22-.49,11.28-5.09,11.15-9.67-.28-9.81-3.78-15.61-10.78-14.46-15.62,2.55-22.81-3.79-24.38-18.69-.24-2.31-.86-6.54-5.06-5.76-5.39.99-12.47-3.43-15.99,3.11-4.7,8.74-10.51,16.3-17.7,23.11-9.02,8.53-8.65,12.18.95,19.93.17.14.3.36.49.47,5.79,3.1,7.09,8.31,8.07,14.37,1.67,10.3.7,20.59,1.24,30.86.55,10.55,10.81,25.52,22.64,27.45,10.85,1.77,21.61.66,32.41.98,1.55.05,2.46-.96,3.56-1.7,5.89-3.94,4.56-10.02,3.98-15.38-.51-4.69-4.33-6.63-9.11-7.28-4.3-.59-8.45-2.27-12.71-3.28-6.44-1.53-8.94-6.05-9.29-12.03-.25-4.27-.05-8.57-.05-12.85Zm693.64-12.95c0-18.01-.09-36.02.05-54.03.05-5.69-2.72-8.91-7.56-11.43-5.9-3.07-11.61-2.49-17.45-.32-4.82,1.8-7.77,5.23-7.78,10.4-.08,36.49-.07,72.98,0,109.46.01,5.72,3.21,10.17,8.6,11.08,5.77.97,11.83,1.52,17.72-1.61,4.5-2.39,6.57-5.04,6.51-10.19-.23-17.78-.09-35.57-.09-53.36Zm-820.73,43.08c.12,18.49-3.84,22.54,17.79,22.55,11.51,0,15.23-6,13.32-17.36-2.44-14.53-2.52-29.18,4.52-42.98,1.76-3.45,4.52-5.93,7.7-6.8,5.27-1.44,10.48-3.74,16.19-3.27,10.37.85,11.84-1.94,11.53-12.1-.07-2.25.07-4.51-.04-6.76-.13-2.53-.97-4.92-3.13-6.37-5.01-3.36-20.54-2.27-25.63,1.65-6.59,5.07-10.36,5.2-17.46.68-1.87-1.19-3.69-2.58-5.72-3.41-12.31-5.06-17.89-1.21-18.89,11.93-.7,9.15,0,18.37.79,27.58,1.09,12.77-.19,25.58-.96,34.67Zm-341.36-23.78s.04,0,.05,0c0,12.61-.21,25.23.1,37.83.13,5.09,2.55,8.95,8.74,8.55,2.26-.14,4.55-.03,6.82-.03,12.61,0,15.62-3,15.68-15.76.06-11.95-.05-23.9.13-35.85.13-8.51,6.19-15,14.55-16.21,5.22-.76,10.45-1.53,15.6-2.61,4.21-.88,7.62-3.43,7.92-7.83.44-6.61.7-13.48-4.62-18.72-.75-.74-2.6-.43-3.95-.52-7.8-.5-14.8,1.68-21.31,5.93-4.33,2.83-8.59,4.84-13.67.49-3.06-2.61-7.13-4.37-11.05-5.58-3.86-1.19-8.99-3.13-11.65,1.19-2.06,3.35-3.43,7.58-3.39,11.94.11,12.39.04,24.78.04,37.17Zm727.87-20.02c0-16.68.06-33.36-.02-50.04-.06-12.05-4.42-16.49-16.51-16.15-6.04.17-10.57,3.01-13.61,8.85-3,5.75.2,10.85.17,16.23-.19,32.47-.12,64.94-.02,97.41,0,2.3-1.03,5.06,1.54,6.86,6.91,4.83,14.6,3.99,21.74,1.59,5.74-1.93,6.7-7.77,6.7-13.34.01-17.13,0-34.27.02-51.4Zm-751.08,18.87c0-11.51.13-23.01-.04-34.52-.14-9.67-4.93-14.12-14.64-14.13-1.82,0-3.64-.01-5.46,0-8.96.06-12.6,3.61-12.62,12.53-.04,22.34-.01,44.67-.01,67.01,0,15.28,1.42,16.66,17,16.61.45,0,.91,0,1.36,0,7.03-.17,14.7-3.84,14.46-14.34-.24-11.05-.05-22.11-.05-33.16Zm-14.9-83.86c-3.42,0-6.13-.03-8.85,0-7.56.11-12.02,6.01-10,13.21,2.94,10.49,6.04,12.19,19.12,12.62,13.07.43,17.76-10.85,13.25-21.64-3.03-7.26-9.47-2.85-13.53-4.19Z"/>
      <path class="cls-2" d="m906.71,21.47c16.53.56,32.58-1.17,48.78.83,11.14,1.37,22.58.95,33.84,1.14,14.94.26,29.85,1.33,44.73,2.03,14.35.68,28.77,1.03,43.1,2.38,19.6,1.85,39.26,3.23,58.81,5.55,12.3,1.46,24.43,4.3,36.65,6.42,4.18.72,8.73,1.46,12.6,1.21,10.57-.68,20.11,3.31,30.19,4.62,20.24,2.63,40.06,7.47,59.96,11.91,24.71,5.53,49.87,9.23,74.13,16.58,51.18,15.52,101.77,33.49,149.96,56.82,23.97,11.61,47.31,24.52,69.72,38.93,11.39,7.32,22.45,15.09,33.38,23.08,10.57,7.73,23.87,10.64,36.52,14.15,22.13,6.13,44.42,9.23,66.91,13.39,23.28,4.31,48.99,14.96,69.3,27.02,15.19,9.02,29.06,21.17,38.09,36.51,10.04,17.04,12.13,37.17,21.22,54.44,6.42,12.2,4.74,22.73-.33,34.43-5.66,13.05-11.45,25.99-14.62,39.91-1.36,6-3.84,9.06-9.94,10.21-16.66,3.12-35.2,7.1-52.17,4.39-5.15-.82-8.05-2.07-8.3-8.05-.35-8.14,1.9-15.87,3.24-23.61,2.3-13.31-.3-25.9-2.26-38.76-10.75-70.61-93.69-104.09-155.88-77.83-33.49,14.14-58.71,45.64-63.48,81.88-2.63,19.92-1.62,39.55,2.59,59.11.85,3.96.11,5.9-4.96,6.14-17.4.81-34.82.83-52.23.81-15.4-.02-32.45,2.2-47.49-1.48-11.91-2.92-21.62-10.85-26.54-22.14-6.3-14.45,12.22-15.37,21.84-15.43,31.88-.2,61.09-.19,84.05-25.42,17.51-19.25,19.24-59.86,3.61-79.87-13.14-16.82-29.28-28.76-52.13-30.37-16.76-1.18-33.35-1.63-50.01.27-4.91.56-7.11-1.51-8.58-6.24-2.59-8.34-1.26-16.2,1.91-23.78,1.61-3.85,5.13-6.9,9.47-7.84,12.98-2.82,25.85-3.96,39.1-.35,14.32,3.89,24.01-3.63,26.31-18.28,2.88-18.39-2.35-34.03-15.27-47.19-5.16-5.26-12.07-8.22-18.62-11.34-28.82-13.73-58.36-25.89-88.55-36.2-34.58-11.81-70.17-20.37-105.67-29.15-25.61-6.33-51.7-9.82-77.54-14.74-14.77-2.81-29.33-6.8-44.18-9.03-9.91-1.49-20.02-2.2-30.05-3-10.91-.87-21.52-3.31-32.32-4.67-13.43-1.69-26.73-4.33-40.13-6.22-22.44-3.15-45.04-4.44-67.66-5.74-16.72-.96-33.33-3.74-49.99-5.76-.28-.03-.48-.69-1.13-1.68Z"/>
      <path class="cls-2" d="m300.55,264.84c0-29.76.03-59.52-.03-89.28-.01-4.93,1.77-9.56,1.64-14.58-.12-4.41,4.38-3.51,6.86-2.98,8.33,1.78,16.62,2.72,25.18,2.72,7.94,0,15.37-2.48,23.12-3.34,10.81-1.2,21.47-2.07,31.8,1.9,9.7,3.73,17.24,10.83,16.65,23.74-.71,15.56.62,31.11-2.52,46.69-3.15,15.63-13.79,24.42-30.13,25.61-12.2.89-23.75-2.88-35.25-6.01-5.48-1.49-5.99-.03-5.97,4.65.13,32.47.06,64.93.07,97.4,0,17.48-6.57,23.06-23.91,18.87-6.5-1.57-7.29-8.63-7.35-14.08-.33-30.43-.16-60.87-.16-91.31Zm75.1-59.12c.95-17.23-7.73-21.79-21.93-22.21-16.12-.48-22.76,7.54-23.06,21.87-.32,14.91,8.15,21.5,26.92,21.58,11.72.05,18.05-7.39,18.07-21.24Z"/>
      <path class="cls-2" d="m837.68,254.03c-7.6-.98-16.56.59-25.66-1.08-15.5-2.85-25.54-10.36-28.27-26.34-3.74-21.88-5.39-43.72,1.67-65.24,7.14-21.74,22.93-33.2,45.19-37.51,16.32-3.16,31.16,1.37,46.2,6.28,6.81,2.22,10.25,15.28,6.33,21.85-1.68,2.8-5.01,3.35-8.31,3.2-9.05-.42-18.11-1.21-27.15-1.02-9.56.21-19.08.96-27.33,7.12-7.49,5.59-11.25,12.61-11.9,21.82-.66,9.27,1.46,18.1,3.22,27.01,2.01,10.14,9.17,14.97,18.73,16.69,5.27.95,10.69,1.13,16.05,1.59,6.95.59,10.16-4.08,12.34-9.39,1.44-3.51-.11-6.64-3.77-8.27-1.79-.8-3.79-1.15-5.55-2-7.82-3.74-10.59-9.89-7.74-17.99,1.22-3.47,2.76-6.32,8-6,10.88.66,21.82.28,32.74.14,3.28-.04,5.66.86,5.31,4.36-1.39,13.94,2.68,27.5,2.7,41.32.01,13.71-6.5,20.4-20.37,22.2-10.35,1.34-20.69,1.17-32.42,1.26Z"/>
      <path class="cls-2" d="m1092.58,179.74c0-14.88.17-29.76-.07-44.63-.12-7.13,3.09-11.31,9.73-13.31,11.83-3.58,20.5,2.61,20.37,14.65-.08,7.46,2.42,14.75.23,22.42-1.73,6.06,2.51,4.64,5.73,3.02,13.86-6.96,28.92-6.88,43.37-4.75,17.14,2.53,25.14,11.77,26.17,28.26,1.08,17.34,1.75,34.74-5.74,51.1-5.81,12.67-15.82,19-30.09,18.94-10.81-.04-21.04-.93-30.36-7.47-6.27-4.39-14.46-2.89-21.54-3.09-15.87-.46-16.82-6.93-17.52-18.5-.94-15.5-.23-31.09-.25-46.64Zm75.01,24.44c-.78-4.22,1.57-8.79-1.16-12.99-5.96-9.15-31.35-10.29-38.14-3.04-6.79,7.25-7.82,21.72-1.2,31.54,4.65,6.91,19.61,9.86,29.04,6.08,10.04-4.03,13.26-11.39,11.46-21.59Z"/>
      <path class="cls-2" d="m124.41,254.02c-7.25.59-11.81-2.68-17.68-9.81-14.55-17.67-43.61-21.26-59.91.54-7.72,10.33-20.57,12.07-31.27,6.51-2.8-1.45-3.61-3.77-1.96-7.54,13.06-29.91,25.66-60.01,38.56-89.99,2.84-6.6,4.49-13.71,8.95-19.67,1.47-1.96,2.81-2.91,5.11-3.65,6.25-1.99,12.61-1.18,18.76-.59,3.28.31,6.93,2.3,8.77,6.26,5.9,12.66,11.79,25.3,15.76,38.75,1.22,4.12,3.14,8.1,5.17,11.92,9.25,17.37,14.42,36.43,22.97,54.1,4.65,9.61,1.1,13.17-13.23,13.17Zm-48.74-89.5c-4.18,13-7.79,24.11-11.3,35.26-.53,1.7.06,3.13,2.25,3.12,7.01-.05,14.02-.13,21.03-.2,2.6-.03,3.05-1.48,2.21-3.55-4.44-10.89-8.92-21.77-14.19-34.63Z"/>
      <path class="cls-2" d="m1321.99,211.77c0,6.09-.42,12.21.09,18.25,1.08,13-8.81,22.25-23.54,24.19-18.38,2.42-36.53-.16-54.75-.56-14.76-.32-25.02-7.21-25.54-25.83-.19-6.84-.74-13.82,3.59-19.88,5.5-7.7,13.31-10.73,22.52-10.85,14.5-.18,29.01-.28,43.51-.55,1.79-.03,4.64.89,5.11-1.75.38-2.17-2-3.25-3.76-4.28-9.12-5.36-18.56-9-29.58-8.4-10.88.59-21.81.14-32.72.05-1.62-.01-3.29.69-4.78-1.34-5.15-7.04-.05-22.45,8.47-23.35,16.95-1.78,34.01-1.15,50.99-.26,6.59.34,13.41.47,19.8,2.71,14.29,5.01,19.39,16.13,20.57,30.89.56,6.94.1,13.97.1,20.96-.03,0-.05,0-.08,0Zm-50.71,3.12c0,.11,0,.22,0,.32-4.52,0-9.06-.26-13.55.08-3.44.26-5.76,1.92-5.46,6.12.26,3.77-.76,8.56,4.39,9.05,9.05.86,18.28,1.92,27.07-2.09,4.08-1.86,4.57-5.14,4.1-8.87-.52-4.13-3.73-4.55-7.03-4.61-3.17-.06-6.34-.01-9.51-.01Z"/>
      <path class="cls-2" d="m532.66,204.44c.56,8.16-.86,16.69-2.72,25.15-3.07,13.94-12.93,23.31-27.13,24.24-9.64.63-19.24,2.55-28.98,1.55-6.23-.64-12.51-.92-18.7-1.83-16.32-2.38-23.76-13.57-26.01-28.26-2.22-14.49-2.71-29.11,1.12-43.66,4.44-16.86,11.62-20.17,27.75-23.95,6.79-1.59,14.01-2.49,20.33-1.99,14.34,1.13,29.37.07,42.58,8.44,7.91,5.02,7.99,13.15,10.34,20.43,2.01,6.24,1.52,12.83,1.42,19.87Zm-54.1-22.35c-5.09.65-9.43,1.13-13.48,4.07-5.35,3.88-6.12,9.57-7.36,15.05-1.28,5.67,1.19,11.19,2.81,16.39,3.74,12.04,27.7,15.06,37.84,2.73,4.97-6.05,5.21-23.88.66-30.11-1.04-1.42-2.5-2.59-3.93-3.65-5.08-3.74-11.26-3.33-16.54-4.48Z"/>
      <path class="cls-2" d="m1016.75,253.78c-7.73,0-15.68,1.18-23.13-.24-17.29-3.28-25.93-13.53-28-32.05-1.38-12.37-1.51-24.86.15-37.22,1.47-10.95,8.61-22.88,26.28-25.96,18.74-3.27,37.57-3.45,56.12,1.34,10.56,2.73,16.76,9.29,18.86,20.6,3.33,17.9,3.02,35.65-1.08,53.11-3.32,14.13-15.85,19.1-29.42,20.49-6.53.67-13.18.11-19.78.11,0-.06,0-.12,0-.18Zm0-70.18c-16.53-1.99-20.92,6.46-21.09,20.84-.17,14.89,6.24,22.61,18.35,22.6,22.48-.03,25.5-2.81,25.28-24.73-.13-13.15-4.94-20.16-22.55-18.7Z"/>
      <path class="cls-2" d="m682.98,201.32c0,4.29-.2,8.58.05,12.85.35,5.98,2.86,10.5,9.29,12.03,4.26,1.01,8.4,2.7,12.71,3.28,4.78.65,8.6,2.59,9.11,7.28.58,5.37,1.91,11.44-3.98,15.38-1.1.74-2.01,1.74-3.56,1.7-10.8-.32-21.56.79-32.41-.98-11.83-1.93-22.08-16.89-22.64-27.45-.54-10.27.43-20.56-1.24-30.86-.98-6.06-2.27-11.27-8.07-14.37-.19-.1-.31-.32-.49-.47-9.6-7.75-9.97-11.41-.95-19.93,7.19-6.8,13-14.37,17.7-23.11,3.52-6.54,10.6-2.12,15.99-3.11,4.2-.77,4.82,3.45,5.06,5.76,1.57,14.9,8.76,21.24,24.38,18.69,7.01-1.14,10.51,4.66,10.78,14.46.13,4.58-4.93,9.18-11.15,9.67-4.07.32-8.18.05-12.28.03-5.63-.04-9.06,1.9-8.42,8.3.36,3.57.06,7.21.06,10.82h.03Z"/>
      <path class="cls-2" d="m1376.61,188.37c0,17.79-.14,35.58.09,53.36.07,5.15-2.01,7.8-6.51,10.19-5.89,3.13-11.94,2.58-17.72,1.61-5.39-.91-8.59-5.36-8.6-11.08-.07-36.49-.07-72.98,0-109.46.01-5.17,2.96-8.6,7.78-10.4,5.84-2.18,11.54-2.75,17.45.32,4.84,2.52,7.6,5.74,7.56,11.43-.15,18.01-.05,36.02-.06,54.04Z"/>
      <path class="cls-2" d="m555.89,231.45c.77-9.09,2.05-21.9.96-34.67-.78-9.21-1.49-18.43-.79-27.58,1-13.14,6.58-16.99,18.89-11.93,2.03.84,3.85,2.22,5.72,3.41,7.1,4.53,10.87,4.39,17.46-.68,5.09-3.92,20.62-5.01,25.63-1.65,2.17,1.45,3.01,3.84,3.13,6.37.11,2.25-.03,4.51.04,6.76.31,10.16-1.16,12.95-11.53,12.1-5.7-.47-10.92,1.84-16.19,3.27-3.17.87-5.94,3.35-7.7,6.8-7.04,13.8-6.96,28.45-4.52,42.98,1.91,11.37-1.81,17.37-13.32,17.36-21.63,0-17.67-4.06-17.79-22.55Z"/>
      <path class="cls-2" d="m214.53,207.67c0-12.39.07-24.78-.04-37.17-.04-4.37,1.33-8.6,3.39-11.94,2.66-4.32,7.79-2.38,11.65-1.19,3.91,1.21,7.99,2.97,11.05,5.58,5.08,4.34,9.34,2.33,13.67-.49,6.51-4.25,13.51-6.42,21.31-5.93,1.35.09,3.2-.22,3.95.52,5.32,5.24,5.07,12.11,4.62,18.72-.3,4.41-3.71,6.95-7.92,7.83-5.16,1.08-10.38,1.85-15.6,2.61-8.36,1.22-14.42,7.7-14.55,16.21-.18,11.95-.07,23.9-.13,35.85-.06,12.76-3.06,15.76-15.68,15.76-2.27,0-4.56-.12-6.82.03-6.19.39-8.61-3.46-8.74-8.55-.32-12.6-.1-25.22-.1-37.83-.02,0-.04,0-.05,0Z"/>
      <path class="cls-2" d="m942.38,187.65c0,17.13,0,34.27,0,51.4,0,5.57-.96,11.41-6.7,13.34-7.14,2.4-14.83,3.25-21.74-1.59-2.57-1.8-1.53-4.56-1.54-6.86-.1-32.47-.17-64.94.02-97.41.03-5.38-3.16-10.48-.17-16.23,3.04-5.84,7.57-8.68,13.61-8.85,12.09-.34,16.45,4.11,16.51,16.15.08,16.68.02,33.36.01,50.04Z"/>
      <path class="cls-2" d="m191.31,206.52c0,11.06-.19,22.11.05,33.16.23,10.49-7.43,14.16-14.46,14.34-.45.01-.91,0-1.36,0-15.58.04-16.99-1.34-17-16.61,0-22.34-.02-44.67.01-67.01.01-8.92,3.66-12.48,12.62-12.53,1.82-.01,3.64,0,5.46,0,9.71.01,14.5,4.47,14.64,14.13.17,11.5.04,23.01.04,34.52Z"/>
      <path class="cls-2" d="m176.41,122.66c4.06,1.33,10.5-3.07,13.53,4.19,4.51,10.8-.18,22.08-13.25,21.64-13.08-.43-16.19-2.13-19.12-12.62-2.01-7.2,2.44-13.1,10-13.21,2.71-.04,5.43,0,8.85,0Z"/>
      <path class="cls-1" d="m874.76,317.57c2.46-4.81,3.4-9.62,3.41-14.36,0-2.86.99-5.25,1.79-7.68,1.12-3.39,4.51-2.29,7.09-2.23,2.88.07,2.19,2.5,2.08,4.08-.95,13.92-3.64,27.56-6.74,41.14-.65,2.85-2.3,3.51-4.85,3.53-2.85.02-5.16-.22-6.57-3.42-3.49-7.95-5.79-16.43-10.69-23.75-.47-.7-1.07-1.32-2.49-3.06-.99,7.37-1.87,13.6-2.63,19.84-.27,2.2-.09,4.35-.98,6.57-1.35,3.37-3.62,4.4-6.88,3.85-3.88-.66-3.57-3.88-3.12-6.38,1.74-9.57,3.66-19.11,5.9-28.57.47-2,.12-4.19.91-5.84,1.27-2.67-.65-7.28,4.13-7.9,4.87-.64,9.78-.63,11.99,5.03,1.61,4.12,4.16,7.94,4.35,12.55.1,2.34,1.24,4.18,3.29,6.62Z"/>
      <path class="cls-1" d="m1191.17,293.26c6.06.02,11.96-.59,17.3,3.99,8.1,6.94,8.35,16.34-.74,21.51-5.19,2.95-3.02,6.88-2.72,10.54.21,2.59,1.86,5.05,2.14,7.64.17,1.6,1.6,4.6-1.63,4.9-2.37.22-5.27,1.61-7.09-1.95-1.64-3.2-3.01-6.36-3.69-9.91-.74-3.82-1.72-7.58-7.24-6.88-4.9.62-4.05,4.42-4.7,7.43-.56,2.59-.53,5.41-1.59,7.77-1.59,3.56-4.87,4.46-8.6,3.52-3.76-.95-2.52-4.2-2.08-6.12,2.47-10.82,2.58-21.97,5.16-32.8,2.27-9.5,1.74-9.62,11.38-9.62,1.36,0,2.73,0,4.09,0Zm1.91,21.81c3.9-1.32,9.55-.2,10-6.55.43-6.03-4.06-5.4-8.25-5.82-6.09-.61-8.98,2.11-9.27,7.63-.28,5.36,4.44,3.75,7.51,4.74Z"/>
      <path class="cls-1" d="m1039.05,293.27c4,.13,8.97-.5,13.77,1.46,6.05,2.48,9.44,7.21,9.52,13.25.07,5.1-1.98,10.35-7.73,12.09-4.59,1.39-2.87,4.27-2.36,6.92.74,3.89,3.54,7.05,3.7,11.29.18,4.95-1.77,6.02-5.94,4.24-5.72-2.45-5.63-7.96-6.65-12.88-1.28-6.2-5.9-8.55-10.73-5.05-2.8,2.03-2.74,5.64-2.76,8.97-.02,5.43-1.95,8.97-8.43,8.56-3.35-.21-4.59-1.47-3.99-4.52,2.72-13.9,5.64-27.76,8.16-41.69.48-2.67,1.76-2.64,3.62-2.64,2.96,0,5.91,0,9.81,0Zm3.41,9.7c-6.42-1.73-9.25,2.39-9.73,7.49-.52,5.57,4.67,4.53,7.91,4.3,4.15-.29,9.58.29,9.52-6.43-.05-5.12-3.02-6.44-7.69-5.36Z"/>
      <path class="cls-1" d="m771.51,293.27c3.67-.09,8.33-.14,12.89,1.58,5.43,2.05,8.37,6.09,9.03,11.42.62,5.04-.65,9.75-5.58,12.67-3.91,2.32-4.58,5.51-3.11,9.76,1.14,3.3,1.46,6.89,2.06,10.37.3,1.76-.57,3.17-2.06,3.92-1.55.79-2.8-.05-4.24-.99-5.35-3.48-5.96-9.39-7.08-14.56-.89-4.09-2.72-4.07-5.9-4.46-4.21-.51-4.32,2.62-4.97,4.86-.85,2.94-.76,6.07-1.61,9.13-1.06,3.79-3.35,5.28-6.85,5.07-4.39-.26-3.01-3.8-2.93-6.2.4-12.92,2.3-25.64,5.41-38.19.76-3.09,2.4-4.62,5.73-4.41,2.71.17,5.44.03,9.21.03Zm2.04,21.81c3.4-1.45,8.88.1,9.1-6.79.21-6.7-4.32-5.01-8.17-5.57-6.29-.91-8.84,3.32-9.3,7.68-.55,5.19,4.69,3.94,8.37,4.67Z"/>
      <path class="cls-1" d="m1350.52,293.27c3.63,0,7.27-.07,10.9.02,2.78.08,6.85-.91,6.79,3.34-.05,3.89-2.73,6.38-7.27,6.18-4.3-.19-8.63.1-12.94-.01-4.11-.11-5.55,1.81-5.59,5.74-.04,3.95,1.82,5.19,5.42,5.02,2.27-.11,4.54.08,6.81-.01,2.99-.13,5.7.16,5.56,4.02-.12,3.39-2.11,5.33-5.55,5.48-3.17.14-6.37.24-9.53.04-4.42-.28-5.32,2.03-5.3,5.81.02,3.83,1.63,5.19,5.38,5.02,4.3-.19,8.62,0,12.94.03,1.91.01,4.02.31,4.27,2.43.24,2.02-.98,3.78-3.14,4.54-1.03.36-2.06.98-3.09,1-8.63.1-17.26.1-25.89.1-3.65,0-4.5-1.68-3.88-5.22,1.91-10.89,3.81-21.8,5.06-32.78,1.23-10.71.88-10.75,11.56-10.75,2.5,0,5,0,7.49,0Z"/>
      <path class="cls-1" d="m992.41,342c-4.54,0-9.09-.04-13.63.02-2.41.03-4.25-.62-3.57-3.4,3.46-13.98,3.27-28.6,7.63-42.45.84-2.67,2.09-2.93,4.27-2.92,8.18.04,16.36-.03,24.53.03,2.09.02,4.69-.74,4.66,3.05-.02,3.15-.02,6.1-4.03,6.34-4.53.27-9.11.5-13.61.06-5.45-.53-5.92,3.05-6.26,6.68-.4,4.27,3.13,3.52,5.67,3.85,1.12.15,2.29.21,3.4.06,4.29-.57,8.49.35,8.67,5.02.18,4.86-4.98,4-8.17,4.66-2.39.5-4.99.23-7.47.07-4.01-.26-5.71,1.29-5.75,5.45-.05,4.17,1.58,5.66,5.64,5.45,4.08-.21,8.18.07,12.26-.05,2.89-.09,4.04,1.02,4.04,3.93,0,2.85-1.09,4.16-3.97,4.14-4.77-.04-9.54-.01-14.31-.01v.03Z"/>
      <path class="cls-1" d="m1145.98,341.98c-4.54,0-9.09-.15-13.62.05-3.7.16-5-1.2-3.97-4.77,3.76-13.02,4.42-26.55,6.41-39.86.46-3.07,1.08-4.26,4.34-4.19,8.62.19,17.25.05,25.88.06,2.66,0,4.88.43,5.38,3.76.51,3.41-1.89,4.37-4.16,5.13-4.6,1.54-9.46.82-14.14.54-5.53-.33-6.62,3.07-6.98,7.01-.47,5.17,3.93,3.11,6.33,3.48,2.65.41,5.45-.15,8.15.06,2.59.2,4,1.81,4.02,4.51.01,2.45-1.29,3.34-3.57,4.07-4.85,1.54-9.77,1.38-14.68,1.22-4.05-.13-5.04,1.79-5,5.36.04,3.42.7,5.66,4.89,5.47,4.53-.21,9.08.15,13.62-.03,3.34-.13,4.9.66,4.84,4.44-.06,3.73-2.07,3.87-4.78,3.83-4.31-.05-8.63-.01-12.94-.01v-.13Z"/>
      <path class="cls-1" d="m832.55,343.38c-4.52.51-6.41-2.89-7-5.96-.89-4.64-4.02-6.02-7.57-6-4.42.02-9.68-.6-11.99,4.81-.75,1.77-1.92,3.04-3.3,4.17-1.81,1.49-3.84,3.6-6.25,1.54-1.98-1.7-.32-3.79.51-5.62,5.72-12.57,11.5-25.12,17.17-37.72,2.41-5.37,6.91-5.53,11.9-5.43,4.88.1,4.05,3.73,4.92,6.57,3.78,12.36,5.01,25.21,7.65,37.79,1,4.77-2.48,5.49-6.05,5.84Zm-11.54-34.94c-3.28,2.06-2.9,6.13-5.42,8.35-1.67,1.47-2.27,3.66-1,5.41.88,1.21,2.52,2.61,4.57,1.6,2.19-1.08,4.41-1.89,4.32-5.17-.09-3.55-.67-6.82-2.48-10.19Z"/>
      <path class="cls-1" d="m1106.1,293.27c5.5-.51,10.72.83,13.72,6.66.84,1.64,2.25,3.1.34,5.37-1.88,2.24-3.31,1.14-5.28.72-3.9-.83-7.06-4.21-11.51-3.17-1.5.35-3.43-.13-3.92,1.86-.38,1.55.15,3.02,1.25,4.37,2.12,2.61,5.27,3.32,8.14,4.34,9.81,3.49,14.61,10.57,12.3,18.65-2.04,7.16-14.07,13.28-22.28,11-4.28-1.19-8.34-3.11-12.03-5.74-3.05-2.17-5.28-5.09-2.92-8.32,2.57-3.52,6.06-1.58,8.86.58,2.11,1.62,3.83,3.65,6.38,4.84,3.52,1.64,6.2,0,8.74-1.74,1.93-1.32,2.9-3.67,2.06-6.01-1.07-3-3.86-3.2-6.67-3.65-11.49-1.84-17.74-8.69-15.99-17.19,1.47-7.15,9.43-12.63,18.8-12.57Z"/>
      <path class="cls-1" d="m912.95,293.27c5.91-.01,11.88-.21,14.49,6.79.76,2.03,2.66,4.12.08,5.95-2.19,1.55-4.88,1.54-6.86-.31-2.55-2.38-5.4-3.23-8.7-2.79-1.81.24-4.39-.99-5,2.05-.54,2.67,1.25,4.27,3.17,5.48,3.59,2.26,7.94,2.75,11.67,4.96,7.46,4.4,9.83,14.85,4.47,21.56-6.94,8.69-26.43,7.92-32.69-1.3-1.72-2.53-3.38-5.53-.29-7.72,2.9-2.06,6.24-1.24,8.22,1.94,3.14,5.06,7.53,5.68,12.62,3.85,2.44-.88,3.88-2.47,3.72-5.57-.17-3.25-1.95-4.31-4.55-4.88-1.1-.24-2.29-.07-3.38-.33-8.96-2.12-15.45-6.74-14.18-15.48,1.26-8.7,7.49-14.25,17.22-14.2Z"/>
      <path class="cls-1" d="m1222.6,319.78c-1.48-5.99-1.49-12.93-2.16-19.81-.3-3.12-1.9-5.95,2.5-6.56,3.73-.52,8.07-1.25,8.87,4.46.96,6.8,2.02,13.59,2.9,20.4.22,1.73-.33,3.96,2.11,4.08,1.8.09,2.93-1.34,3.72-3.2,2.96-7.02,6.15-13.93,9.29-20.87.55-1.21,1.06-2.53,1.93-3.5,1.71-1.93,4.37-2.19,6.3-1.25,2.23,1.09,1.19,3.42.35,5.31-5.63,12.63-11.47,25.18-16.76,37.94-2.45,5.91-7.06,5.07-11.77,5.29-5.32.24-5.11-4.45-5.5-6.98-.73-4.79-3-9.43-1.77-15.3Z"/>
      <path class="cls-1" d="m959.69,293.33c4.32,0,8.64,0,12.95,0,2.76,0,4.18,1.28,4.26,4.08.08,2.91-1.45,3.91-4.18,4.07-4.46.26-8.76,1.96-13.34,1.39-5.48-.69-6.74,3.65-6.99,7.24-.26,3.74,3.06,5.02,6.68,4.81,1.36-.08,2.75-.17,4.08.03,1.9.29,4.84-1.62,5.2,2.28.31,3.35-1.76,4.94-4.5,5.74-1.47.43-3.16.11-4.75.12-10.84.06-10.8.06-11.22,11.08-.11,2.97.97,6.87-3.53,7.62-2.6.44-6.04.85-7.89-.44-2.31-1.61-.5-4.68.22-7.28,3.15-11.39,4.43-23.13,5.49-34.85.39-4.27,1.43-6.24,5.91-5.99,3.85.21,7.72.04,11.59.04v.06Z"/>
      <path class="cls-1" d="m733.4,293.29c4.54,0,9.08-.2,13.6.07,2.76.17,5.71,1.27,5.87,4.5.17,3.4-2.91,3.15-5.35,3.71-11.36,2.6-12.24,4.27-12.82,16.17-.33,6.79-.66,13.69-2.58,20.34-1.39,4.82-3.88,5.73-9.08,4.43-5.54-1.38-4.49-3.34-3.4-7.37,2.36-8.73,3.57-17.76,5.87-26.5,1.25-4.75-.2-6.26-4.64-5.83-3.48.34-7.44-.35-7.37-3.85.06-3.41,3.34-5.93,7.66-5.72,4.07.2,8.16.04,12.25.06Z"/>
      <path class="cls-1" d="m1275.95,302.31c-2.2,11.46-2.21,23.8-5.61,35.7-1.43,4.99-4.87,5.71-8.64,5.11-4.31-.69-4.19-4.04-3.46-7.75,2.43-12.31,4.05-24.75,6.96-36.99,1.08-4.54,3.04-5.51,7.25-5.22,5.21.35,2.43,4.35,3.46,6.57.26.55.04,1.33.04,2.59Z"/>
      <path class="cls-1" d="m1274.2,287.67c-1.87-.16-3.78-.42-3.77-2.85,0-1.65,1.33-2.16,2.8-2.25,2.09-.13,3.52.54,3.58,2.91.05,1.82-1.02,2.28-2.61,2.19Z"/>
      <path class="cls-1" d="m375.66,205.73c-.02,13.84-6.35,21.28-18.07,21.24-18.77-.07-27.24-6.67-26.92-21.58.3-14.32,6.94-22.35,23.06-21.87,14.19.42,22.87,4.98,21.93,22.21Z"/>
      <path class="cls-1" d="m1167.59,204.19c1.81,10.2-1.42,17.56-11.46,21.59-9.43,3.78-24.39.83-29.04-6.08-6.62-9.83-5.59-24.29,1.2-31.54,6.79-7.25,32.18-6.11,38.14,3.04,2.73,4.2.39,8.77,1.16,12.99Z"/>
      <path class="cls-1" d="m75.67,164.52c5.28,12.86,9.76,23.73,14.19,34.63.84,2.06.39,3.52-2.21,3.55-7.01.08-14.02.15-21.03.2-2.19.02-2.78-1.42-2.25-3.12,3.5-11.14,7.11-22.26,11.3-35.26Z"/>
      <path class="cls-1" d="m1271.28,214.89c3.17,0,6.34-.05,9.51.01,3.3.06,6.51.48,7.03,4.61.47,3.73-.02,7.01-4.1,8.87-8.79,4.01-18.02,2.95-27.07,2.09-5.15-.49-4.13-5.28-4.39-9.05-.29-4.2,2.03-5.85,5.46-6.12,4.49-.35,9.03-.08,13.55-.08,0-.11,0-.22,0-.32Z"/>
      <path class="cls-1" d="m478.56,182.09c5.28,1.15,11.46.74,16.54,4.48,1.44,1.06,2.9,2.23,3.93,3.65,4.55,6.23,4.31,24.06-.66,30.11-10.13,12.32-34.1,9.31-37.84-2.73-1.61-5.2-4.09-10.72-2.81-16.39,1.24-5.48,2-11.17,7.36-15.05,4.05-2.94,8.39-3.42,13.48-4.07Z"/>
      <path class="cls-1" d="m1016.75,183.6c17.61-1.46,22.42,5.55,22.55,18.7.22,21.92-2.8,24.7-25.28,24.73-12.11.02-18.53-7.71-18.35-22.6.17-14.38,4.55-22.83,21.09-20.84Z"/>
      <path class="cls-3" d="m1193.08,315.08c-3.08-1-7.8.62-7.51-4.74.29-5.52,3.18-8.24,9.27-7.63,4.19.42,8.67-.21,8.25,5.82-.45,6.35-6.1,5.22-10,6.55Z"/>
      <path class="cls-3" d="m1042.46,302.97c4.67-1.08,7.65.24,7.69,5.36.06,6.73-5.36,6.15-9.52,6.43-3.23.22-8.43,1.27-7.91-4.3.48-5.1,3.31-9.22,9.73-7.49Z"/>
      <path class="cls-3" d="m773.55,315.08c-3.68-.73-8.92.52-8.37-4.67.46-4.36,3.01-8.6,9.3-7.68,3.85.56,8.37-1.14,8.17,5.57-.21,6.88-5.69,5.33-9.1,6.79Z"/>
      <path class="cls-3" d="m821.01,308.43c1.8,3.37,2.38,6.64,2.48,10.19.08,3.28-2.13,4.09-4.32,5.17-2.05,1.01-3.69-.4-4.57-1.6-1.27-1.75-.67-3.94,1-5.41,2.52-2.22,2.13-6.29,5.42-8.35Z"/>
      <circle class="cls-2" cx="1641.98" cy="383.31" r="65.82"/>
      <path class="cls-2" d="m1641.97,483.19c-55.07,0-99.88-44.79-99.88-99.87s44.81-99.9,99.88-99.9,99.88,44.82,99.88,99.9-44.79,99.87-99.88,99.87Zm0-184.14c-46.45,0-84.26,37.8-84.26,84.27s37.8,84.24,84.26,84.24,84.26-37.8,84.26-84.24-37.8-84.27-84.26-84.27Z"/>
      <rect class="cls-3" x="1320.89" y="266.52" width="176.12" height="105.45" rx="52.72" ry="52.72"/>
    </g>
    <path class="cls-3" d="m1733.36,52.49c0,3.44-.94,6.56-2.19,9.69-2.5,5.94-6.25,11.25-10.62,16.25-6.56,7.19-13.75,13.43-20.93,19.68-.94,1.25-2.5,2.19-3.44,3.44-.31.31-.63.62-.63.94,1.25,4.69,2.5,9.06,3.44,13.43l.94,3.13,4.37,16.87,3.75,14.69.94,3.12,3.75,13.43c.31,1.87,0,3.75-1.56,5.31-2.19,1.87-4.06,3.75-5.94,5.31-2.5,2.19-5,1.87-6.56-.94-6.25-11.87-12.19-23.75-18.43-35.62-.63-1.87-2.19-3.44-3.12-5-3.13-3.12-5.94-6.25-9.06-9.37-1.87,1.56-3.44,3.12-5.31,4.69-8.75,7.19-17.5,14.69-26.87,21.25-.63.62-.94.94-.94,1.87.63,9.06,1.25,18.12,1.56,26.87.31,2.5-.31,4.37-1.87,5.62-1.56,1.25-3.12,2.19-4.37,3.44h-2.19c-1.25-.63-1.87-2.19-2.81-3.75-2.19-5.94-4.69-11.87-7.5-18.12,0,0-.63-10-18.43-17.5-.31-.31-.94-.31-1.56-.62-4.37-2.5-8.43-4.69-12.81-6.87-3.13-1.25-3.44-4.37-.94-6.56,4.06-4.06,4.06-4.37,10-3.13,8.12.94,16.56,1.87,24.68,2.81.62.31.94,0,1.25-.31,9.06-10.62,18.75-20.62,28.43-30.62v-.31c-3.12-3.75-6.56-7.5-10-10.62-2.19-1.87-5-3.12-7.19-4.69-10-5.94-20-11.87-29.68-17.81-.62-.31-.62-.63-1.25-.94-1.87-1.25-2.19-3.75-.63-5.31,2.19-2.5,4.69-4.69,7.19-6.87,1.25-.94,2.81-.94,4.69-.62,3.75,1.25,7.5,2.5,11.25,3.75l5.31,1.87,14.06,5,2.19.63,14.06,5h.31c3.13.94,6.25,1.87,9.37,3.13,2.19.62,4.06,1.25,6.25,1.87.63.31,1.25.31,1.87-.31,5.31-5,10.31-10,15.62-15.31,5.31-5,11.25-9.37,17.5-13.12,4.69-2.5,9.06-4.69,14.69-5.31,1.25,0,3.12,0,4.37.63,3.44.31,5,2.5,5,5.94Z"/>
  </g>
</svg>